{"title":"Django Unchained (HD 1080p).m4v","uid":11275074,"size":8824287475,"categoryP":"video","categoryS":"hd___movies","magnet":"?xt=urn:btih:fe55b2044f920fb98c4deebdd4a65bd9c37064b1&amp;dn=Django+Unchained+%28HD+1080p%29.m4v&amp;tr=udp%3A%2F%2Ftracker.openbittorrent.com%3A80&amp;tr=udp%3A%2F%2Fopen.demonii.com%3A1337&amp;tr=udp%3A%2F%2Ftracker.coppersurfer.tk%3A6969&amp;tr=udp%3A%2F%2Fexodus.desync.com%3A6969","seeders":3,"leechers":0,"uploader":"arctictpb","files":1,"time":1414132496,"description":"General\nComplete name : Django Unchained (HD 1080p).m4v\nFormat : MPEG-4\nFormat profile : Base Media / Version 2\nCodec ID : mp42\nFile size : 8.22 GiB\nDuration : 2h 45mn\nOverall bit rate mode : Variable\nOverall bit rate : 7 114 Kbps\nMovie name : Django Unchained\nPerformer : Quentin Tarantino\nExecutive producer : Harvey Weinstein, Bob Weinstein, James W. Skotchdopole, Michael Shamberg, Shannon McIntosh\nGenre : Drama, Western\nContentType : Short Film\nDescription : With the help of a German bounty hunter, a freed slave sets out to rescue his wife from a brutal Mississippi plantation owner.\nRecorded date : 2012-12-25\nEncoded date : UTC 1904-01-01 00:00:00\nTagged date : UTC 2014-10-20 23:23:48\nWriting application : HandBrake 6443svn 2014101301\nCover : Yes\nRating : None\nLongDescription : With the help of a German bounty hunter, a freed slave sets out to rescue his wife from a brutal Mississippi plantation owner.\nContentRating : mpaa|R|400|\n\nVideo\nID : 1\nFormat : AVC\nFormat/Info : Advanced Video Codec\nFormat profile : &lt;a class=&quot;__cf_email__&quot; href=&quot;/cdn-cgi/l/email-protection&quot; data-cfemail=&quot;e7af8e808fa7abd3c9d7&quot;&gt;[email&amp;#160;protected]&lt;/a&gt;&lt;script cf-hash='f9e31' type=&quot;text/javascript&quot;&gt;\n/* &lt;![CDATA[ */!function(){try{var t=&quot;currentScript&quot;in document?document.currentScript:function(){for(var t=document.getElementsByTagName(&quot;script&quot;),e=t.length;e--;)if(t[e].getAttribute(&quot;cf-hash&quot;))return t[e]}();if(t&amp;&amp;t.previousSibling){var e,r,n,i,c=t.previousSibling,a=c.getAttribute(&quot;data-cfemail&quot;);if(a){for(e=&quot;&quot;,r=parseInt(a.substr(0,2),16),n=2;a.length-n;n+=2)i=parseInt(a.substr(n,2),16)^r,e+=String.fromCharCode(i);e=document.createTextNode(e),c.parentNode.replaceChild(e,c)}}}catch(u){}}();/* ]]&gt; */&lt;/script&gt;\nFormat settings, CABAC : Yes\nFormat settings, ReFrames : 4 frames\nCodec ID : avc1\nCodec ID/Info : Advanced Video Coding\nDuration : 2h 45mn\nBit rate : 6 132 Kbps\nWidth : 1 920 pixels\nHeight : 800 pixels\nDisplay aspect ratio : 2.40:1\nFrame rate mode : Variable\nFrame rate : 23.976 fps\nMinimum frame rate : 17.026 fps\nMaximum frame rate : 23.981 fps\nColor space : YUV\nChroma subsampling : 4:2:0\nBit depth : 8 bits\nScan type : Progressive\nBits/(Pixel*Frame) : 0.167\nStream size : 7.08 GiB (86%)\nWriting library : x264 core 142 r2479 dd79a61\nEncoding settings : cabac=1 / ref=4 / deblock=1:0:0 / analyse=0x3:0x133 / me=umh / subme=10 / psy=1 / psy_rd=1.00:0.15 / mixed_ref=1 / me_range=32 / chroma_me=1 / trellis=2 / 8x8dct=1 / cqm=0 / deadzone=21,11 / fast_pskip=1 / chroma_qp_offset=-3 / threads=12 / lookahead_threads=1 / sliced_threads=0 / nr=0 / decimate=1 / interlaced=0 / bluray_compat=0 / constrained_intra=0 / bframes=4 / b_pyramid=2 / b_adapt=2 / b_bias=0 / direct=3 / weightb=1 / open_gop=0 / weightp=2 / keyint=240 / keyint_min=24 / scenecut=40 / intra_refresh=0 / rc_lookahead=60 / rc=crf / mbtree=1 / crf=19.0 / qcomp=0.60 / qpmin=0 / qpmax=69 / qpstep=4 / vbv_maxrate=25000 / vbv_bufsize=31250 / crf_max=0.0 / nal_hrd=none / filler=0 / ip_ratio=1.40 / aq=1:1.00\nEncoded date : UTC 1904-01-01 00:00:00\nTagged date : UTC 1904-01-01 00:00:00\nColor primaries : BT.709\nTransfer characteristics : BT.709\nMatrix coefficients : BT.709\n\nAudio #1\nID : 2\nFormat : AAC\nFormat/Info : Advanced Audio Codec\nFormat profile : LC\nCodec ID : 40\nDuration : 2h 45mn\nBit rate mode : Variable\nBit rate : 330 Kbps\nMaximum bit rate : 496 Kbps\nChannel(s) : 2 channels\nChannel positions : Front: L R\nSampling rate : 48.0 KHz\nCompression mode : Lossy\nStream size : 390 MiB (5%)\nTitle : Stereo\nLanguage : English\nEncoded date : UTC 1904-01-01 00:00:00\nTagged date : UTC 1904-01-01 00:00:00\n\nAudio #2\nID : 3\nFormat : AC-3\nFormat/Info : Audio Coding 3\nMode extension : CM (complete main)\nFormat settings, Endianness : Big\nCodec ID : ac-3\nDuration : 2h 45mn\nBit rate mode : Constant\nBit rate : 640 Kbps\nChannel(s) : 6 channels\nChannel positions : Front: L C R, Side: L R, LFE\nSampling rate : 48.0 KHz\nBit depth : 16 bits\nCompression mode : Lossy\nStream size : 757 MiB (9%)\nTitle : Surround\nLanguage : English\nEncoded date : UTC 1904-01-01 00:00:00\nTagged date : UTC 1904-01-01 00:00:00\n\nMenu\nID : 4\nCodec ID : text\nDuration : 2h 45mn\nLanguage : English\nEncoded date : UTC 1904-01-01 00:00:00\nTagged date : UTC 1904-01-01 00:00:00\n00:00:00.000 : Chapter 1\n00:03:36.233 : Chapter 2\n00:12:47.409 : Chapter 3\n00:18:48.978 : Chapter 4\n00:26:48.249 : Chapter 5\n00:31:44.545 : Chapter 6\n00:40:26.942 : Chapter 7\n00:46:04.904 : Chapter 8\n00:52:36.170 : Chapter 9\n00:58:12.881 : Chapter 10\n01:02:20.045 : Chapter 11\n01:12:13.221 : Chapter 12\n01:18:35.436 : Chapter 13\n01:26:07.596 : Chapter 14\n01:34:49.576 : Chapter 15\n01:40:52.146 : Chapter 16\n01:45:33.886 : Chapter 17\n01:50:01.070 : Chapter 18\n01:55:03.789 : Chapter 19\n02:03:54.653 : Chapter 20\n02:08:13.786 : Chapter 21\n02:14:14.146 : Chapter 22\n02:17:29.008 : Chapter 23\n02:22:31.894 : Chapter 24\n02:26:28.547 : Chapter 25\n02:33:00.230 : Chapter 26\n02:35:41.766 : Chapter 27\n02:41:31.032 : Chapter 28\nBit rate mode : VBR","torrent":{"xt":"urn:btih:fe55b2044f920fb98c4deebdd4a65bd9c37064b1","amp;dn":"Django+Unchained+%28HD+1080p%29.m4v","amp;tr":["udp%3A%2F%2Ftracker.openbittorrent.com%3A80","udp%3A%2F%2Fopen.demonii.com%3A1337","udp%3A%2F%2Ftracker.coppersurfer.tk%3A6969","udp%3A%2F%2Fexodus.desync.com%3A6969"],"infoHash":"fe55b2044f920fb98c4deebdd4a65bd9c37064b1","infoHashBuffer":{"type":"Buffer","data":[254,85,178,4,79,146,15,185,140,77,238,189,212,166,91,217,195,112,100,177]},"announce":[],"urlList":[]}}